<svg width="66" height="62" viewBox="0 0 66 62" fill="none" xmlns="http://www.w3.org/2000/svg">
    <path d="M41.5898 10.6577L36.7798 5.8477L29.3398 13.2877L29.7498 13.6977C28.1398 13.7177 26.5398 14.3377 25.3198 15.5677L20.0198 20.8677L7.46981 33.4177C3.26981 37.6177 3.26981 44.4377 7.46981 48.6377C10.9998 52.1677 16.7198 52.1677 20.2498 48.6377L34.3398 34.5477C39.1798 29.7077 39.5498 22.0877 35.4498 16.8177L41.6098 10.6577H41.5898Z" fill="url(#paint0_linear_1_11)"/>
    <path d="M65.0498 11.0577H32.6998L37.7898 6.22771L62.7498 8.53771C64.0498 8.65771 65.0498 9.74771 65.0498 11.0577Z" fill="#333333"/>
    <path d="M28.6098 18.3677L26.6798 16.8677L40.1798 6.40771C34.9998 -0.272288 25.3998 -1.48229 18.7198 3.68771C13.7498 7.53771 11.8098 13.8377 13.2698 19.5577L20.2998 14.2577C21.1898 13.5877 22.4498 13.7677 23.1198 14.6577C23.7898 15.5477 23.6098 16.8077 22.7198 17.4877L6.17982 29.9477L4.28982 32.4477C-2.51018 41.4377 -0.840179 54.2177 8.03982 61.1577L30.2298 31.7077C33.4598 27.5677 32.7298 21.5977 28.5898 18.3677H28.6098ZM29.3998 7.40771C30.2898 6.73771 31.5498 6.91771 32.2298 7.80771C32.8998 8.69771 32.7198 9.95771 31.8298 10.6277C30.9398 11.2977 29.6698 11.1177 28.9998 10.2277C28.3298 9.33771 28.5098 8.06771 29.3998 7.39771V7.40771Z" fill="url(#paint1_linear_1_11)"/>
    <defs>
        <linearGradient id="paint0_linear_1_11" x1="19.7698" y1="37.8077" x2="28.3498" y2="11.8177" gradientUnits="userSpaceOnUse">
            <stop stop-color="#FB712A"/>
            <stop offset="1" stop-color="#FCC715"/>
        </linearGradient>
        <linearGradient id="paint1_linear_1_11" x1="32.0198" y1="3.14771" x2="5.52982" y2="50.3377" gradientUnits="userSpaceOnUse">
            <stop stop-color="#0061DF"/>
            <stop offset="1" stop-color="#00AED4"/>
        </linearGradient>
    </defs>
</svg>
